<svg width="32" height="32" viewBox="0 0 32 32" fill="none" xmlns="http://www.w3.org/2000/svg">
<path fill-rule="evenodd" clip-rule="evenodd" d="M4 5.33333C4 4.59695 4.63207 4 5.41176 4H26.5882C27.3679 4 28 4.59695 28 5.33333V26.6667C28 27.403 27.3679 28 26.5882 28H5.41176C4.63207 28 4 27.403 4 26.6667V5.33333ZM13.8824 25.3333H18.1176V20.7619H13.8824V25.3333ZM11.0588 20.7619V25.3333H6.82353V20.7619H11.0588ZM13.8824 18.0952L18.1176 18.0952V14H13.8824V18.0952ZM11.0588 14V18.0952H6.82353V14H11.0588ZM13.8824 11.3333L18.1176 11.3333V6.66667H13.8824V11.3333ZM11.0588 6.66667V11.3333H6.82353V6.66667H11.0588ZM20.9412 6.66667V11.3333H25.1765V6.66667H20.9412ZM25.1765 14H20.9412V18.0952H25.1765V14ZM25.1765 20.7619H20.9412V25.3333H25.1765V20.7619Z" fill="white"/>
</svg>
